<svg width="106" height="77" viewBox="0 0 106 77" fill="none" xmlns="http://www.w3.org/2000/svg">
<path fill-rule="evenodd" clip-rule="evenodd" d="M100.871 9.93542H5.12903C2.3008 9.93542 0 12.2254 0 15.0404V71.1951C0 74.0101 2.3008 76.3001 5.12903 76.3001H100.871C103.699 76.3001 106 74.0101 106 71.1951V15.0404C106 12.2254 103.699 9.93542 100.871 9.93542Z" fill="#809DAC"/>
<path fill-rule="evenodd" clip-rule="evenodd" d="M48.6353 68.3064H58.8933V76.8147H48.6353V68.3064Z" fill="#708D9C"/>
<path fill-rule="evenodd" clip-rule="evenodd" d="M99.8049 63.4759V68.5809C99.8049 69.5207 99.0394 70.2826 98.0953 70.2826H9.19204C8.24787 70.2826 7.48236 69.5207 7.48236 68.5809V63.4759L17.6936 58.371L58.7259 60.0726L92.9194 58.371L99.8049 63.4759Z" fill="#A5B8C2"/>
<path fill-rule="evenodd" clip-rule="evenodd" d="M9.88104 65.3408C23.9301 59.5681 39.8183 59.9195 53.6437 66.3945V5.13485C39.3625 -1.55373 22.8804 -1.70794 8.4977 4.672C7.87879 4.9466 7.48236 5.57005 7.48236 6.24454V63.785C7.48236 65.0143 8.73961 65.8098 9.88104 65.3408Z" fill="white"/>
<path fill-rule="evenodd" clip-rule="evenodd" d="M53.6235 66.3945C67.4488 59.9193 83.3371 59.5681 97.3861 65.3408C98.5276 65.8098 99.7848 65.0143 99.7848 63.785V6.24454C99.7848 5.57005 99.3884 4.9466 98.7695 4.672C84.3868 -1.70794 67.9045 -1.55373 53.6235 5.13485V66.3945H53.6235Z" fill="white"/>
<path fill-rule="evenodd" clip-rule="evenodd" d="M60.3217 55.6562C59.5938 55.6562 58.9191 55.1908 58.6905 54.464C58.4084 53.5674 58.9091 52.612 59.809 52.3303C61.5388 51.7894 63.3186 51.3274 65.1 50.956C66.0218 50.7633 66.93 51.3506 67.1237 52.2723C67.3173 53.192 66.7264 54.0937 65.8012 54.2864C64.1283 54.6354 62.4571 55.07 60.8342 55.5775C60.6639 55.6305 60.4903 55.6562 60.3217 55.6562Z" fill="#DAE4E9"/>
<path fill-rule="evenodd" clip-rule="evenodd" d="M92.0613 55.562C91.8927 55.562 91.7189 55.5363 91.5488 55.4831C85.0976 53.4667 78.4106 52.7113 71.6804 53.2448C70.7254 53.3129 69.9156 52.6192 69.8406 51.6827C69.7671 50.7455 70.4685 49.9262 71.4101 49.8515C78.5927 49.2897 85.7054 50.0891 92.574 52.2362C93.4739 52.5178 93.9748 53.4733 93.6925 54.3698C93.4637 55.0969 92.7892 55.562 92.0613 55.562Z" fill="#DAE4E9"/>
<path fill-rule="evenodd" clip-rule="evenodd" d="M92.8054 48.1216C92.6368 48.1216 92.463 48.0959 92.2929 48.0427C82.0015 44.8255 71.1256 44.8255 60.8342 48.0427C59.9293 48.3243 58.9709 47.8251 58.6905 46.9294C58.4084 46.0328 58.9091 45.0773 59.809 44.7957C70.7717 41.3692 82.3554 41.3692 93.3181 44.7957C94.218 45.0773 94.7189 46.0328 94.4366 46.9294C94.2077 47.6564 93.5333 48.1216 92.8054 48.1216Z" fill="#DAE4E9"/>
<path fill-rule="evenodd" clip-rule="evenodd" d="M60.3217 41.8992C59.5938 41.8992 58.9191 41.4338 58.6905 40.707C58.4084 39.8104 58.9091 38.855 59.809 38.5733C66.1017 36.6075 72.6316 35.7707 79.2098 36.0783C80.1514 36.1232 80.881 36.92 80.8359 37.8588C80.7925 38.7994 80.0044 39.5173 79.0461 39.4782C72.8735 39.1883 66.7411 39.9742 60.834 41.8205C60.6639 41.8735 60.4903 41.8992 60.3217 41.8992Z" fill="#DAE4E9"/>
<path fill-rule="evenodd" clip-rule="evenodd" d="M92.1028 42.3246C91.9342 42.3246 91.7605 42.2988 91.5903 42.2456C89.43 41.5701 87.201 41.0283 84.9653 40.6363C84.0353 40.4725 83.4142 39.5902 83.5797 38.6645C83.7434 37.7396 84.6315 37.1207 85.5599 37.2845C87.9408 37.7024 90.3132 38.2791 92.6157 38.9987C93.5157 39.2803 94.0166 40.2358 93.7343 41.1323C93.5052 41.8594 92.8307 42.3246 92.1028 42.3246Z" fill="#DAE4E9"/>
<path fill-rule="evenodd" clip-rule="evenodd" d="M92.8054 34.4603C92.6368 34.4603 92.463 34.4346 92.2929 34.3814C82.0015 31.1642 71.1256 31.1642 60.8342 34.3814C59.9293 34.6613 58.9709 34.163 58.6905 33.2681C58.4084 32.3716 58.9091 31.4161 59.809 31.1345C70.7717 27.708 82.3554 27.708 93.3181 31.1345C94.218 31.4161 94.7189 32.3716 94.4366 33.2681C94.2077 33.9951 93.5333 34.4603 92.8054 34.4603Z" fill="#DAE4E9"/>
<path fill-rule="evenodd" clip-rule="evenodd" d="M60.3217 27.91C59.5938 27.91 58.9191 27.4445 58.6905 26.7177C58.4084 25.8212 58.9091 24.8657 59.809 24.5841C63.2485 23.5088 66.808 22.7629 70.3926 22.3672C71.3442 22.2534 72.1775 22.9381 72.2809 23.8702C72.3843 24.8042 71.7082 25.6459 70.77 25.7488C67.4058 26.1211 64.0614 26.8215 60.8342 27.831C60.6639 27.884 60.4903 27.91 60.3217 27.91Z" fill="#DAE4E9"/>
<path fill-rule="evenodd" clip-rule="evenodd" d="M93.1658 28.2344C92.9972 28.2344 92.8235 28.2087 92.6534 28.1555C87.8265 26.6457 82.8144 25.8398 77.7537 25.7609C76.8087 25.746 76.0558 24.9724 76.0708 24.0326C76.0857 23.0937 76.9107 22.3027 77.8072 22.3576C83.1967 22.4422 88.5377 23.3007 93.6785 24.9083C94.5785 25.19 95.0794 26.1454 94.7971 27.042C94.5665 27.769 93.8937 28.2344 93.1658 28.2344Z" fill="#DAE4E9"/>
<path fill-rule="evenodd" clip-rule="evenodd" d="M60.3217 22.0335C59.5938 22.0335 58.9191 21.5681 58.6905 20.8413C58.4084 19.9447 58.9091 18.9892 59.809 18.7076C67.2587 16.3787 74.9689 15.6308 82.736 16.4908C83.6744 16.5937 84.3506 17.4354 84.2469 18.3694C84.1435 19.3025 83.3154 19.9938 82.3586 19.8724C75.0724 19.0681 67.8281 19.7669 60.834 21.9546C60.6639 22.0077 60.4903 22.0335 60.3217 22.0335Z" fill="#DAE4E9"/>
<path fill-rule="evenodd" clip-rule="evenodd" d="M92.4237 21.7394C92.255 21.7394 92.0813 21.7137 91.9112 21.6605C90.826 21.3206 89.7123 21.0124 88.5987 20.7425C87.6821 20.5197 87.1194 19.5992 87.3431 18.686C87.5669 17.7728 88.4852 17.2145 89.4101 17.4355C90.5939 17.7231 91.7793 18.0519 92.9363 18.4135C93.8363 18.6951 94.3372 19.6506 94.0549 20.5472C93.826 21.2742 93.1516 21.7394 92.4237 21.7394Z" fill="#DAE4E9"/>
<path fill-rule="evenodd" clip-rule="evenodd" d="M60.3217 14.2877C59.5938 14.2877 58.9191 13.8216 58.6905 13.0946C58.4084 12.1972 58.9091 11.2426 59.8107 10.9618C60.9861 10.5944 62.1716 10.2662 63.3352 9.98461C64.2469 9.76105 65.1768 10.3228 65.4005 11.236C65.6243 12.1491 65.0599 13.0697 64.1433 13.2916C63.0514 13.5557 61.9378 13.864 60.8325 14.2088C60.6621 14.2617 60.4903 14.2877 60.3217 14.2877Z" fill="#DAE4E9"/>
<path fill-rule="evenodd" clip-rule="evenodd" d="M92.5241 14.5818C92.3555 14.5818 92.1818 14.5561 92.0117 14.5029C85.0161 12.3152 77.775 11.6173 70.487 12.4207C69.542 12.5354 68.7021 11.8498 68.5987 10.9177C68.4953 9.98372 69.1714 9.14204 70.1096 9.03909C77.8733 8.17912 85.5852 8.927 93.0366 11.2559C93.9366 11.5376 94.4375 12.493 94.1552 13.3896C93.9265 14.1164 93.252 14.5818 92.5241 14.5818Z" fill="#DAE4E9"/>
<path fill-rule="evenodd" clip-rule="evenodd" d="M14.1805 55.6562C13.4526 55.6562 12.7781 55.1908 12.5492 54.464C12.2671 53.5674 12.7679 52.612 13.6678 52.3303C15.3976 51.7894 17.1773 51.3274 18.9588 50.956C19.882 50.7633 20.7888 51.3506 20.9824 52.2723C21.176 53.192 20.5851 54.0937 19.66 54.2864C17.9871 54.6354 16.3159 55.07 14.693 55.5775C14.5226 55.6305 14.3491 55.6562 14.1805 55.6562Z" fill="#DAE4E9"/>
<path fill-rule="evenodd" clip-rule="evenodd" d="M45.9201 55.562C45.7514 55.562 45.5777 55.5363 45.4076 55.4831C38.9578 53.4667 32.2694 52.7113 25.5392 53.2448C24.5709 53.3129 23.7744 52.6192 23.6994 51.6827C23.6259 50.7455 24.3273 49.9262 25.2689 49.8515C32.4514 49.2897 39.5624 50.0891 46.4327 52.2362C47.3327 52.5178 47.8336 53.4733 47.5513 54.3698C47.3224 55.0969 46.648 55.562 45.9201 55.562Z" fill="#DAE4E9"/>
<path fill-rule="evenodd" clip-rule="evenodd" d="M46.6641 48.1216C46.4955 48.1216 46.3218 48.0959 46.1517 48.0427C35.8603 44.8255 24.9844 44.8255 14.693 48.0427C13.7847 48.3243 12.8296 47.8251 12.5492 46.9294C12.2671 46.0328 12.7679 45.0773 13.6678 44.7957C24.6305 41.3692 36.2142 41.3692 47.1768 44.7957C48.0768 45.0773 48.5777 46.0328 48.2954 46.9294C48.0665 47.6564 47.392 48.1216 46.6641 48.1216Z" fill="#DAE4E9"/>
<path fill-rule="evenodd" clip-rule="evenodd" d="M14.1805 41.8992C13.4526 41.8992 12.7781 41.4338 12.5492 40.707C12.2671 39.8104 12.7679 38.855 13.6678 38.5733C19.9605 36.6075 26.4953 35.7707 33.0686 36.0783C34.0102 36.1232 34.7398 36.92 34.6947 37.8588C34.6496 38.7994 33.8531 39.5173 32.9049 39.4782C26.7306 39.1883 20.5999 39.9742 14.6927 41.8205C14.5226 41.8735 14.3491 41.8992 14.1805 41.8992Z" fill="#DAE4E9"/>
<path fill-rule="evenodd" clip-rule="evenodd" d="M45.9616 42.3246C45.793 42.3246 45.6192 42.2988 45.4491 42.2456C43.2887 41.5701 41.0597 41.0283 38.8241 40.6363C37.894 40.4725 37.273 39.5902 37.4384 38.6645C37.6004 37.7396 38.492 37.1207 39.4187 37.2845C41.7996 37.7024 44.172 38.2791 46.4745 38.9987C47.3744 39.2803 47.8754 40.2358 47.593 41.1323C47.364 41.8594 46.6895 42.3246 45.9616 42.3246Z" fill="#DAE4E9"/>
<path fill-rule="evenodd" clip-rule="evenodd" d="M14.1805 34.4469C13.4526 34.4469 12.7781 33.9815 12.5492 33.2547C12.2671 32.3581 12.7679 31.4026 13.6678 31.121C23.3867 28.0842 33.7565 27.746 43.6489 30.1438C44.5672 30.3665 45.1299 31.2871 44.9062 32.2003C44.6824 33.1126 43.7526 33.6684 42.8409 33.4508C33.5511 31.1965 23.8173 31.5164 14.693 34.3682C14.5226 34.4212 14.3491 34.4469 14.1805 34.4469Z" fill="#DAE4E9"/>
<path fill-rule="evenodd" clip-rule="evenodd" d="M14.1805 27.91C13.4526 27.91 12.7781 27.4445 12.5492 26.7177C12.2671 25.8212 12.7679 24.8657 13.6678 24.5841C17.1072 23.5088 20.6668 22.7629 24.2513 22.3672C25.1946 22.2534 26.0362 22.9381 26.1397 23.8702C26.2431 24.8042 25.5669 25.6459 24.6287 25.7488C21.2645 26.1211 17.9202 26.8215 14.693 27.831C14.5226 27.884 14.3491 27.91 14.1805 27.91Z" fill="#DAE4E9"/>
<path fill-rule="evenodd" clip-rule="evenodd" d="M43.6071 27.2864C43.4735 27.2864 43.3365 27.2707 43.2015 27.2381C39.4115 26.3192 35.5113 25.8215 31.6126 25.7609C30.6676 25.746 29.9147 24.9724 29.9297 24.0326C29.9446 23.0937 30.6826 22.3027 31.6661 22.3576C35.8199 22.4233 39.9723 22.9525 44.0095 23.9312C44.9278 24.1539 45.4905 25.0745 45.2668 25.9876C45.0761 26.7655 44.3766 27.2864 43.6071 27.2864Z" fill="#DAE4E9"/>
<path fill-rule="evenodd" clip-rule="evenodd" d="M14.1805 22.0335C13.4526 22.0335 12.7781 21.5681 12.5492 20.8413C12.2671 19.9447 12.7679 18.9892 13.6678 18.7076C21.1192 16.3787 28.8294 15.6308 36.5948 16.4908C37.5332 16.5937 38.2094 17.4354 38.1057 18.3694C38.0023 19.3025 37.1673 19.9938 36.2174 19.8724C28.9311 19.0681 21.6868 19.7669 14.6927 21.9546C14.5226 22.0077 14.3491 22.0335 14.1805 22.0335Z" fill="#DAE4E9"/>
<path fill-rule="evenodd" clip-rule="evenodd" d="M14.1805 14.2877C13.4526 14.2877 12.7781 13.8216 12.5492 13.0946C12.2671 12.1972 12.7678 11.2426 13.6695 10.9618C14.8449 10.5944 16.0303 10.2662 17.194 9.98461C18.104 9.76105 19.0355 10.3228 19.2593 11.236C19.483 12.1491 18.9186 13.0697 18.002 13.2916C16.9102 13.5557 15.7965 13.864 14.6912 14.2088C14.5209 14.2617 14.3491 14.2877 14.1805 14.2877Z" fill="#DAE4E9"/>
<path fill-rule="evenodd" clip-rule="evenodd" d="M42.9653 13.6305C42.8317 13.6305 42.6947 13.6147 42.5596 13.5822C36.5841 12.1338 30.4566 11.7442 24.3458 12.418C23.4074 12.5327 22.5609 11.8488 22.4575 10.915C22.354 9.98104 23.0302 9.13936 23.9684 9.03641C30.4748 8.31512 37.0047 8.73394 43.3675 10.2752C44.2858 10.4979 44.8485 11.4185 44.6247 12.3317C44.4343 13.1093 43.7348 13.6305 42.9653 13.6305Z" fill="#DAE4E9"/>
<path fill-rule="evenodd" clip-rule="evenodd" d="M43.6518 31.9231C43.652 32.6025 44.4128 33.0079 44.9809 32.631L48.7808 30.1096L52.5808 32.631C53.1488 33.0079 53.9099 32.6027 53.9099 31.9231V5.68993C53.9099 5.01777 53.516 4.39731 52.8988 4.12419C50.2366 2.94579 47.5007 2.00073 44.7218 1.27008C44.1797 1.12757 43.6469 1.5449 43.6471 2.10305L43.6518 31.9231Z" fill="#8FB4C8"/>
</svg>
